<svg width="55" height="55" xmlns="http://www.w3.org/2000/svg" xmlns:xlink="http://www.w3.org/1999/xlink" xml:space="preserve" overflow="hidden"><defs><clipPath id="clip0"><rect x="612" y="354" width="55" height="55"/></clipPath></defs><g clip-path="url(#clip0)" transform="translate(-612 -354)"><path d="M625.177 362.021 653.823 362.021 653.823 400.979 625.177 400.979 625.177 362.021ZM621.74 404.417 657.26 404.417 657.26 358.583 621.74 358.583 621.74 404.417Z"/><path d="M640.646 367.177 650.385 367.177 650.385 369.469 640.646 369.469Z"/><path d="M640.646 376.344 650.385 376.344 650.385 378.635 640.646 378.635Z"/><path d="M640.646 394.677 650.385 394.677 650.385 396.969 640.646 396.969Z"/><path d="M640.646 385.51 650.385 385.51 650.385 387.802 640.646 387.802Z"/><path d="M637.094 365.917 635.49 364.312 631.708 368.094 630.219 366.604 628.615 368.208 631.708 371.302Z"/><path d="M637.094 375.083 635.49 373.479 631.708 377.26 630.219 375.771 628.615 377.375 631.708 380.469Z"/><path d="M637.094 384.25 635.49 382.646 631.708 386.427 630.219 384.938 628.615 386.542 631.708 389.635Z"/><path d="M637.094 393.302 635.49 391.698 631.708 395.479 630.219 393.99 628.615 395.594 631.708 398.688Z"/></g></svg>